# xmcd
#
# Track frame offsets:
#	150
#	12530
#	24128
#	35978
#	50170
#	73833
#	93618
#	105190
#	118468
#	133145
#	147348
#	163643
#	181535
#	211430
#	232120
#	248353
#	272720
#	317378
#
# Disc length: 4402 seconds
#
# Revision: 0
# Processed by: cddbd v1.5PL3 Copyright (c) Steve Scherf et al.
# Submitted via: dBpowerAMP V4.0
#
DISCID=04113012
DTITLE=polygram - Erotica
DYEAR=1900
DGENRE=Blues
TTITLE0=A Man And A Woman
TTITLE1=I Love U,U Love Me
TTITLE2=L' Amour Est Bleu
TTITLE3=Doctor Kiss Kiss
TTITLE4=Amado Mio
TTITLE5=Jungle Fever
TTITLE6=The Girl From Salina
TTITLE7=Demain Tu Te Maries 
TTITLE8=Mister Sun
TTITLE9=Love For Sale
TTITLE10=Emmanuelle
TTITLE11=Captain Of Her Heart 
TTITLE12=Storm Of Light
TTITLE13=Mysterious Ways
TTITLE14=Breathless
TTITLE15=Missing You
TTITLE16=French Kiss
TTITLE17=I'm Too Sexy
EXTD=Erotica
EXTT0=
EXTT1=
EXTT2=
EXTT3=
EXTT4=
EXTT5=
EXTT6=
EXTT7=
EXTT8=
EXTT9=
EXTT10=
EXTT11=
EXTT12=
EXTT13=
EXTT14=
EXTT15=
EXTT16=
EXTT17=
PLAYORDER=
